<svg width="80" height="80" viewBox="0 0 80 80" fill="none" xmlns="http://www.w3.org/2000/svg">
<path d="M79.5 40C79.5 61.8153 61.8153 79.5 40 79.5C18.1848 79.5 0.5 61.8153 0.5 40C0.5 18.1848 18.1848 0.5 40 0.5C61.8153 0.5 79.5 18.1848 79.5 40Z" fill="#CDB8B8" stroke="#F2C94C"/>
<path d="M21.5938 42.8691C21.5938 40.069 22.2412 37.8444 23.5361 36.1953C24.8311 34.5352 26.5465 33.7051 28.6826 33.7051C30.874 33.7051 32.584 34.4798 33.8125 36.0293L33.9619 34.0371H36.7676V51.5684C36.7676 53.8926 36.0758 55.7243 34.6924 57.0635C33.32 58.4027 31.4717 59.0723 29.1475 59.0723C27.8525 59.0723 26.5853 58.7956 25.3457 58.2422C24.1061 57.6888 23.1598 56.9307 22.5068 55.9678L24.1006 54.125C25.4176 55.752 27.028 56.5654 28.9316 56.5654C30.4258 56.5654 31.5879 56.1449 32.418 55.3037C33.2591 54.4626 33.6797 53.2783 33.6797 51.751V50.207C32.4512 51.6237 30.7744 52.332 28.6494 52.332C26.5465 52.332 24.8421 51.4854 23.5361 49.792C22.2412 48.0986 21.5938 45.791 21.5938 42.8691ZM24.6816 43.2178C24.6816 45.2432 25.0967 46.8369 25.9268 47.999C26.7568 49.1501 27.9189 49.7256 29.4131 49.7256C31.3499 49.7256 32.7721 48.8457 33.6797 47.0859V38.8848C32.7389 37.1693 31.3278 36.3115 29.4463 36.3115C27.9521 36.3115 26.7845 36.8926 25.9434 38.0547C25.1022 39.2168 24.6816 40.9378 24.6816 43.2178ZM56.623 43.2178C56.623 45.9626 55.9922 48.1706 54.7305 49.8418C53.4688 51.502 51.7754 52.332 49.6504 52.332C47.3815 52.332 45.6273 51.5296 44.3877 49.9248L44.2383 52H41.416V26.5H44.4873V36.0127C45.7269 34.4743 47.4368 33.7051 49.6172 33.7051C51.7975 33.7051 53.5075 34.5296 54.7471 36.1787C55.9977 37.8278 56.623 40.0856 56.623 42.9521V43.2178ZM53.5518 42.8691C53.5518 40.7773 53.1478 39.1615 52.3398 38.0215C51.5319 36.8815 50.3698 36.3115 48.8535 36.3115C46.8281 36.3115 45.3727 37.2523 44.4873 39.1338V46.9033C45.4281 48.7848 46.8945 49.7256 48.8867 49.7256C50.3587 49.7256 51.5042 49.1556 52.3232 48.0156C53.1423 46.8757 53.5518 45.1602 53.5518 42.8691Z" fill="#161810"/>
</svg>
